<svg width="50" height="50" viewBox="0 0 50 50" fill="none" xmlns="http://www.w3.org/2000/svg">
<path d="M18.7501 22.9167C20.3983 22.9167 22.0094 22.428 23.3798 21.5123C24.7502 20.5966 25.8183 19.2951 26.4491 17.7724C27.0798 16.2497 27.2448 14.5741 26.9233 12.9576C26.6018 11.3411 25.8081 9.85625 24.6426 8.69081C23.4772 7.52537 21.9923 6.7317 20.3758 6.41016C18.7593 6.08861 17.0838 6.25364 15.5611 6.88437C14.0383 7.5151 12.7368 8.58321 11.8212 9.95362C10.9055 11.324 10.4167 12.9352 10.4167 14.5834C10.4167 16.7935 11.2947 18.9131 12.8575 20.4759C14.4203 22.0387 16.5399 22.9167 18.7501 22.9167Z" fill="#48459E"/>
<path d="M35.4164 27.0833C36.6525 27.0833 37.8609 26.7168 38.8887 26.03C39.9165 25.3432 40.7176 24.3671 41.1906 23.2251C41.6637 22.083 41.7874 20.8264 41.5463 19.614C41.3051 18.4016 40.7099 17.288 39.8358 16.4139C38.9617 15.5398 37.8481 14.9446 36.6357 14.7034C35.4233 14.4623 34.1666 14.586 33.0246 15.0591C31.8826 15.5321 30.9065 16.3332 30.2197 17.361C29.5329 18.3888 29.1664 19.5972 29.1664 20.8333C29.1664 22.4909 29.8249 24.0806 30.997 25.2527C32.1691 26.4248 33.7588 27.0833 35.4164 27.0833Z" fill="#48459E"/>
<path d="M43.7501 41.6666C44.3026 41.6666 44.8325 41.4471 45.2232 41.0564C45.6139 40.6657 45.8334 40.1358 45.8334 39.5833C45.8317 37.6362 45.2844 35.7285 44.2534 34.0768C43.2225 32.425 41.7492 31.0953 40.0008 30.2384C38.2524 29.3816 36.2988 29.0319 34.3617 29.2291C32.4247 29.4263 30.5816 30.1625 29.0417 31.3541C27.0011 29.3215 24.4044 27.9387 21.5789 27.38C18.7534 26.8213 15.8257 27.1118 13.1651 28.2148C10.5045 29.3178 8.23011 31.184 6.62871 33.5779C5.02731 35.9719 4.17064 38.7864 4.16675 41.6666C4.16675 42.2191 4.38624 42.7491 4.77694 43.1398C5.16764 43.5305 5.69755 43.7499 6.25008 43.7499H31.2501C31.8026 43.7499 32.3325 43.5305 32.7232 43.1398C33.1139 42.7491 33.3334 42.2191 33.3334 41.6666" fill="#48459E"/>
</svg>
