<svg width="15" height="15" viewBox="0 0 15 15" fill="none" xmlns="http://www.w3.org/2000/svg">
<path d="M0 0V8.57143H2.14286V0H0ZM4.28571 0V8.57143C4.88571 8.57143 5.42143 8.76429 5.82857 9.17143C6.23571 9.57857 8.29286 13.7143 8.57143 14.2714C8.85 14.8286 9.40714 15.1071 9.98571 14.9357C10.5429 14.7643 10.8429 14.1643 10.65 13.5857C10.4786 13.0286 9.64286 10.1786 9.64286 9.64286C9.64286 9.10714 10.1143 8.57143 10.7143 8.57143H13.9286C14.5286 8.57143 15 8.1 15 7.5C15 6.9 12.7929 0.664286 12.7929 0.664286C12.6214 0.278571 12.2357 0 11.7857 0L4.28571 0Z" fill="white"/>
</svg>
