<svg width="50" height="50" viewBox="0 0 50 50" fill="none" xmlns="http://www.w3.org/2000/svg">
<path d="M20.8334 29.1667H29.1667V43.75H20.8334V29.1667Z" fill="#48459E"/>
<path d="M42.5419 21.2083L26.4794 4.79166C26.2857 4.59639 26.0553 4.44141 25.8014 4.33564C25.5476 4.22987 25.2753 4.17542 25.0002 4.17542C24.7252 4.17542 24.4529 4.22987 24.199 4.33564C23.9452 4.44141 23.7147 4.59639 23.5211 4.79166L7.45857 21.2292C7.0699 21.621 6.76294 22.0861 6.55551 22.5975C6.34808 23.1089 6.24431 23.6565 6.25024 24.2083V41.6667C6.24863 42.7331 6.65602 43.7597 7.38852 44.5348C8.12102 45.3099 9.12287 45.7747 10.1877 45.8333H16.6669V27.0833C16.6669 26.5308 16.8864 26.0009 17.2771 25.6102C17.6678 25.2195 18.1977 25 18.7502 25H31.2502C31.8028 25 32.3327 25.2195 32.7234 25.6102C33.1141 26.0009 33.3336 26.5308 33.3336 27.0833V45.8333H39.8127C40.8776 45.7747 41.8795 45.3099 42.612 44.5348C43.3445 43.7597 43.7519 42.7331 43.7502 41.6667V24.2083C43.7519 23.0894 43.3186 22.0137 42.5419 21.2083Z" fill="#48459E"/>
</svg>
