<svg width="50" height="50" viewBox="0 0 50 50" fill="none" xmlns="http://www.w3.org/2000/svg">
<path d="M37.5 6.25H12.5C10.8424 6.25 9.25269 6.90848 8.08058 8.08058C6.90848 9.25269 6.25 10.8424 6.25 12.5V37.5C6.25 39.1576 6.90848 40.7473 8.08058 41.9194C9.25269 43.0915 10.8424 43.75 12.5 43.75H37.5C39.1576 43.75 40.7473 43.0915 41.9194 41.9194C43.0915 40.7473 43.75 39.1576 43.75 37.5V12.5C43.75 10.8424 43.0915 9.25269 41.9194 8.08058C40.7473 6.90848 39.1576 6.25 37.5 6.25ZM12.5 10.4167H37.5C38.0525 10.4167 38.5824 10.6362 38.9731 11.0269C39.3638 11.4176 39.5833 11.9475 39.5833 12.5V29.9167L32.9167 24.2292C31.8837 23.3793 30.5876 22.9146 29.25 22.9146C27.9124 22.9146 26.6163 23.3793 25.5833 24.2292L10.4167 36.875V12.5C10.4167 11.9475 10.6362 11.4176 11.0269 11.0269C11.4176 10.6362 11.9475 10.4167 12.5 10.4167Z" fill="#48459E"/>
<path d="M16.6667 20.8333C18.3926 20.8333 19.7917 19.4342 19.7917 17.7083C19.7917 15.9824 18.3926 14.5833 16.6667 14.5833C14.9409 14.5833 13.5417 15.9824 13.5417 17.7083C13.5417 19.4342 14.9409 20.8333 16.6667 20.8333Z" fill="#48459E"/>
</svg>
