<svg width="15" height="16" viewBox="0 0 15 16" fill="none" xmlns="http://www.w3.org/2000/svg">
<path d="M9.57857 0.00569971C9.17143 0.0485569 8.78571 0.327128 8.57143 0.734271C8.29286 1.29141 6.23571 5.42713 5.82857 5.83427C5.42143 6.24141 4.88571 6.43427 4.28571 6.43427V15.0057H11.7857C12.2357 15.0057 12.6214 14.7271 12.7929 14.3414C12.7929 14.3414 15 8.1057 15 7.5057C15 6.9057 14.5286 6.43427 13.9286 6.43427H10.7143C10.1143 6.43427 9.64286 5.89856 9.64286 5.36284C9.64286 4.82713 10.4786 1.97713 10.65 1.41999C10.8214 0.862843 10.5429 0.262843 9.98571 0.0699854C9.83571 0.0271283 9.72857 -0.0157289 9.57857 0.00569971ZM0 6.43427V15.0057H2.14286V6.43427H0Z" fill="#B0A6EB"/>
</svg>
