<svg width="50" height="50" viewBox="0 0 50 50" fill="none" xmlns="http://www.w3.org/2000/svg">
<path d="M42.75 31.6875L39 27.9166V18.625C39.0499 15.1746 37.8497 11.8227 35.6211 9.18815C33.3925 6.55363 30.2859 4.8144 26.875 4.29162C24.8954 4.03093 22.883 4.1954 20.9721 4.77407C19.0611 5.35274 17.2956 6.33229 15.7932 7.64737C14.2908 8.96245 13.0861 10.5828 12.2596 12.4004C11.4331 14.2179 11.0036 16.1908 11 18.1875V27.9166L7.24999 31.6875C6.77896 32.1663 6.45954 32.7734 6.33166 33.4329C6.20377 34.0923 6.27311 34.7748 6.53098 35.395C6.78886 36.0153 7.22384 36.5457 7.78155 36.9201C8.33926 37.2945 8.99495 37.4962 9.66666 37.5H16.6667V38.2083C16.764 40.3233 17.6957 42.3135 19.2578 43.7427C20.8198 45.172 22.8847 45.9237 25 45.8333C27.1153 45.9237 29.1802 45.172 30.7422 43.7427C32.3043 42.3135 33.236 40.3233 33.3333 38.2083V37.5H40.3333C41.005 37.4962 41.6607 37.2945 42.2184 36.9201C42.7761 36.5457 43.2111 36.0153 43.469 35.395C43.7269 34.7748 43.7962 34.0923 43.6683 33.4329C43.5404 32.7734 43.221 32.1663 42.75 31.6875ZM29.1667 38.2083C29.0511 39.2104 28.5534 40.1292 27.7772 40.7735C27.001 41.4177 26.0062 41.7376 25 41.6666C23.9938 41.7376 22.9989 41.4177 22.2228 40.7735C21.4466 40.1292 20.9489 39.2104 20.8333 38.2083V37.5H29.1667V38.2083Z" fill="#48459E"/>
</svg>
